<svg xmlns="http://www.w3.org/2000/svg" width="1200" height="630" viewBox="0 0 1200 630">
  <defs>
    <linearGradient id="bg" x1="0" y1="0" x2="1" y2="1">
      <stop offset="0" stop-color="#f7f4ff"/>
      <stop offset=".45" stop-color="#eef9ff"/>
      <stop offset="1" stop-color="#fff2f5"/>
    </linearGradient>
    <linearGradient id="hero" x1="0" y1="0" x2="1" y2="1">
      <stop offset="0" stop-color="#17132d"/>
      <stop offset=".52" stop-color="#6545ee"/>
      <stop offset="1" stop-color="#26a8ff"/>
    </linearGradient>
    <linearGradient id="text" x1="0" y1="0" x2="1" y2="0">
      <stop offset="0" stop-color="#17132d"/>
      <stop offset=".56" stop-color="#6f45f2"/>
      <stop offset="1" stop-color="#ff5d7d"/>
    </linearGradient>
    <filter id="shadow" x="-30%" y="-30%" width="160%" height="160%">
      <feDropShadow dx="0" dy="20" stdDeviation="24" flood-color="#4a3696" flood-opacity=".18"/>
    </filter>
  </defs>
  <rect width="1200" height="630" fill="url(#bg)"/>
  <circle cx="1040" cy="110" r="180" fill="#e9ff63" opacity=".92"/>
  <circle cx="1130" cy="560" r="250" fill="#ff5d7d" opacity=".30"/>
  <circle cx="80" cy="590" r="210" fill="#26a8ff" opacity=".18"/>
  <rect x="64" y="56" width="1072" height="518" rx="42" fill="none" stroke="#17132d" stroke-opacity=".10"/>
  <rect x="84" y="118" width="510" height="392" rx="34" fill="url(#hero)" filter="url(#shadow)"/>
  <circle cx="500" cy="188" r="82" fill="#e9ff63"/>
  <path d="M414 402 C470 316 526 464 590 342" fill="none" stroke="#ff5d7d" stroke-width="15" stroke-linecap="round"/>
  <text x="126" y="190" fill="#ffffff" font-family="Arial, Helvetica, sans-serif" font-size="18" font-weight="700" letter-spacing="4">DAILY INTERNET BRIEF</text>
  <text x="126" y="275" fill="#ffffff" font-family="Arial, Helvetica, sans-serif" font-size="58" font-weight="900">今天只读这一页</text>
  <text x="126" y="326" fill="#ffffff" opacity=".72" font-family="Arial, Helvetica, sans-serif" font-size="22">AI · 创业 · 全球 · 经济 · 学习</text>
  <rect x="126" y="382" width="196" height="52" rx="26" fill="#e9ff63"/>
  <text x="161" y="416" fill="#17132d" font-family="Arial, Helvetica, sans-serif" font-size="17" font-weight="900">ONE PAGE / TODAY</text>
  <text x="650" y="206" fill="url(#text)" font-family="Arial, Helvetica, sans-serif" font-size="76" font-weight="900">YOUNG</text>
  <text x="650" y="284" fill="url(#text)" font-family="Arial, Helvetica, sans-serif" font-size="76" font-weight="900">CURIOUS</text>
  <text x="650" y="362" fill="url(#text)" font-family="Arial, Helvetica, sans-serif" font-size="76" font-weight="900">DAILY</text>
  <rect x="650" y="408" width="344" height="3" rx="2" fill="#17132d" opacity=".18"/>
  <text x="650" y="458" fill="#514a69" font-family="Arial, Helvetica, sans-serif" font-size="22">热点、深度阅读与碎片化学习。</text>
  <text x="650" y="494" fill="#514a69" font-family="Arial, Helvetica, sans-serif" font-size="22">每天覆盖同一链接，不保留旧页。</text>
</svg>
